# xmcd
#
# Track frame offsets:
#	150
#	13205
#	28566
#	40754
#	53935
#	66628
#	79588
#	93680
#	106353
#	118478
#	130384
#	142583
#	153027
#	163712
#	174958
#	187595
#	200315
#	212649
#	229695
#	246202
#	259214
#	272210
#	285064
#	300516
#	311160
#
# Disc length: 4330 seconds
# Revision: 0
# Processed by: cddbd v1.5.2PL0 Copyright (c) Steve Scherf et al.
# Submitted via: dBpowerAMP V12.0
#
DISCID=5710e819
DTITLE=Ray Charles - BD Blues 14 CD1 Studio Sessions 1953-1959
DYEAR=2010
DGENRE=Blues
TTITLE0=Heartbreaker
TTITLE1=Sinners Prayer
TTITLE2=Mess Around
TTITLE3=Rays Blues
TTITLE4=I Got A Break Baby
TTITLE5=Greenbacks
TTITLE6=Come Back Baby
TTITLE7=Mary Ann
TTITLE8=Hallelujah I Love Her So
TTITLE9=Lonely Avenue
TTITLE10=Leave My Woman Alone
TTITLE11=Its All Right
TTITLE12=Get On The Right Track Baby
TTITLE13=You Be My Baby
TTITLE14=My Bonnie
TTITLE15=Early In The Morning
TTITLE16=Tell Me How Do You Feel
TTITLE17=Dont Let The Sun Catch Your Cryin
TTITLE18=Am I Blue?
TTITLE19=Let The Good Times Roll
TTITLE20=Alexanders Ragtime Band
TTITLE21=When Your Lover Has Gone
TTITLE22=Two Years Of Torture
TTITLE23=Im Movin On
TTITLE24=I Believe To My Soul
EXTD=
EXTT0=
EXTT1=
EXTT2=
EXTT3=
EXTT4=
EXTT5=
EXTT6=
EXTT7=
EXTT8=
EXTT9=
EXTT10=
EXTT11=
EXTT12=
EXTT13=
EXTT14=
EXTT15=
EXTT16=
EXTT17=
EXTT18=
EXTT19=
EXTT20=
EXTT21=
EXTT22=
EXTT23=
EXTT24=
PLAYORDER=
